<svg width="128" height="61" viewBox="0 0 128 61" fill="none" xmlns="http://www.w3.org/2000/svg">
<path d="M25.2498 43.872H26.9538V60H25.2498V43.872ZM31.5378 43.872H33.3858L30.0018 51.912L33.5778 60H31.6818L28.1778 51.96L31.5378 43.872ZM41.9206 43.872H43.6246V56.448C43.6246 57.584 43.2806 58.504 42.5926 59.208C41.9206 59.896 40.9126 60.24 39.5686 60.24C38.2246 60.24 37.2086 59.896 36.5206 59.208C35.8486 58.504 35.5126 57.584 35.5126 56.448V43.872H37.2166V56.4C37.2166 57.936 38.0006 58.704 39.5686 58.704C41.1366 58.704 41.9206 57.936 41.9206 56.4V43.872ZM50.8923 53.52H48.5163V60H46.8123V43.872H50.7243C52.0043 43.872 52.9723 44.2 53.6283 44.856C54.2843 45.496 54.6123 46.376 54.6123 47.496V49.872C54.6123 51.6 53.9243 52.72 52.5483 53.232L55.1163 60H53.2443L50.8923 53.52ZM48.5163 52.032H50.6523C52.1563 52.032 52.9083 51.304 52.9083 49.848V47.568C52.9083 46.112 52.1563 45.384 50.6523 45.384H48.5163V52.032ZM64.069 43.872H65.773V56.448C65.773 57.584 65.429 58.504 64.741 59.208C64.069 59.896 63.061 60.24 61.717 60.24C60.373 60.24 59.357 59.896 58.669 59.208C57.997 58.504 57.661 57.584 57.661 56.448V43.872H59.365V56.4C59.365 57.936 60.149 58.704 61.717 58.704C63.285 58.704 64.069 57.936 64.069 56.4V43.872ZM68.9607 43.872H70.6647V58.512H75.5607V60H68.9607V43.872ZM83.8559 43.872V45.384H80.7359V60H79.0079V45.384H75.8879V43.872H83.8559ZM92.4625 60L91.4785 55.488H87.1585L86.1745 60H84.4705L88.1185 43.872H90.5185L94.1665 60H92.4625ZM87.4705 54H91.1425L89.2945 45.528L87.4705 54ZM100.346 60H98.6419V54.552L94.6819 43.872H96.4339L98.0659 48.264C98.1299 48.44 98.6179 49.872 99.5299 52.56C100.122 50.72 101.138 47.824 102.578 43.872H104.306L100.346 54.552V60Z" fill="white"/>
<path d="M35.088 18.812C35.088 18.38 34.98 18.056 34.764 17.84C34.572 17.6 34.188 17.48 33.612 17.48H31.02V33.356H33.612C34.596 33.356 35.088 32.804 35.088 31.7V18.812ZM25.62 13.052H34.368C36.312 13.052 37.812 13.52 38.868 14.456C39.948 15.392 40.488 16.772 40.488 18.596V32.132C40.488 36.044 38.556 38 34.692 38H25.62V13.052ZM58.4939 13.052H71.1299V17.732H63.8939V23.024H70.1579V27.704H63.8939V33.32H71.1299V38H58.4939V13.052ZM98.8102 13.052H104.426L99.6742 38H92.1502L87.3262 13.052H92.8342C94.2262 20.996 95.0302 25.796 95.2462 27.452C95.4622 29.108 95.7022 31.064 95.9662 33.32C96.4222 29.024 96.8182 25.808 97.1542 23.672L98.8102 13.052Z" fill="white"/>
</svg>
